<?xml version="1.0" encoding="utf-8"?>
<!-- Generator: Adobe Illustrator 25.0.0, SVG Export Plug-In . SVG Version: 6.00 Build 0)  -->
<svg version="1.1" id="Layer_1" xmlns="http://www.w3.org/2000/svg" xmlns:xlink="http://www.w3.org/1999/xlink" x="0px" y="0px"
	 viewBox="0 0 595.2756 156.9812" style="enable-background:new 0 0 595.2756 156.9812;" xml:space="preserve">
<style type="text/css">
	.st0{fill-rule:evenodd;clip-rule:evenodd;}
</style>
<path class="st0" d="M237.1376,56.1562c0.6631,2.5167,8.1649,33.1898-4.9669,61.3492
	c-1.2822,2.7459-16.1848,38.7381-56.6642,38.8486c-40.4794-0.1105-55.382-36.1027-56.6642-38.8486
	c-13.1344-28.1594-5.63-58.8324-4.9669-61.3485c16.1245-55.6777,61.4829-54.901,61.4829-54.901h0.292
	c0,0,45.3621-0.7767,61.4867,54.8997L237.1376,56.1562z M203.2816,133.7945c1.0147-2.5061,9.2915-19.0752,9.3078-54.9676
	c0.0138-35.8898-8.3226-52.4565-9.3348-54.965c-7.7009-23.3928-27.3852-21.5825-27.3852-21.5825h-0.7259
	c0,0-19.6874-1.8103-27.3852,21.5819c-1.0147,2.5086-9.2915,19.0752-9.3078,54.965c-0.0138,35.8924,8.3232,52.4615,9.3373,54.9675
	c7.6984,23.3903,27.3833,21.5831,27.3833,21.5831h0.7253c0,0,19.6874,1.8072,27.3852-21.5831V133.7945z M568.7601,144.3707
	c25.6779-15.7422,26.1909-46.8321,26.1909-46.8321h0.3246v55.6043H487.9527v-1.0643h11.5042V4.1443h-20.007v107.8931
	c0,46.4403-37.8352,44.9383-44.1163,44.9383c-49.1755,0-51.1265-31.4516-51.1265-45.1599V4.2366h-11.8458V3.1723h49.6911v1.08
	h-11.8427v118.716c0,9.0208,1.9893,13.2844,3.1491,15.9073c8.612,17.5468,24.8785,16.318,26.783,16.318
	c30.3333,0,38.1485-23.3256,38.1485-45.4814V4.2473h-11.925V3.1396h124.3944v47.8833h-0.4666
	c0-14.3482-10.0751-27.3513-11.7473-29.5666C567.42,4.7308,545.5054,4.1205,545.5054,4.1205h-20.0786v71.4544
	c18.1522,0,22.0026-4.7578,23.5059-5.9031c13.2179-10.7413,10.7081-25.092,10.7081-25.092h1.004v63.714h-1.0888
	c0-17.3848-11.0409-24.6738-13.9658-27.0618c-6.6937-5.4925-20.1628-4.5085-20.1628-4.5085v75.3256h16.5635
	c16.3946-0.8245,25.514-6.9436,26.7686-7.6783H568.7601z M71.4915,155.7261L13.1903,4.2015H0V3.1396h51.5673l-0.0082,1.0863H39.069
	l43.5085,109.6174L115.1551,4.2448h-12.0236v-1.097h24.9658v1.097h-11.7837L71.4915,155.7261z M334.9367,6.7609
	C349.585,10.1253,354.4496,0,354.4496,0v53.7764c-5.4253-24.3014-20.5609-40.112-21.8908-41.6674
	c-7.0592-7.9358-14.2822-10.4726-22.3366-10.4726c-17.9211,0.4094-23.4832,17.673-24.7284,20.4548
	c-7.4749,18.49-7.5571,48.3561-7.5571,50.9708c-0.6643,29.62,4.9004,51.0593,5.8115,54.5745
	c4.8181,18.49,12.9554,23.1536,14.2853,24.1344c11.0258,6.6265,23.5567,2.0678,25.0587,1.5554
	c16.6928-6.8708,16.2765-26.1802,16.2765-26.1802V93.3553h-11.2091v-1.2295h46.0855v1.146h-10.1285v60.2999
	c-7.9728-13.6644-23.9159-5.7254-26.8213-4.4991c-15.864,7.5263-21.0952,6.9574-23.0895,7.1194
	c-20.326,1.7142-34.4437-10.7187-35.6035-11.6995c-25.4122-21.3577-28.0696-51.3833-28.2366-53.836
	c-3.3217-36.082,12.7884-57.9307,13.5356-59.1571C284.9957,1.4744,304.9908,0.5739,308.479,0.41
	C318.1917-0.41,331.4505,6.0758,334.9367,6.7609z"/>
</svg>
